# xmcd
#
# Track frame offsets:
#	150
#	19117
#	35433
#	51984
#	66248
#	92601
#	107737
#	120704
#	135957
#	148721
#	166896
#	191711
#	214806
#	232914
#	251547
#	269151
#	287628
#
# Disc length: 4038
#
# Revision: 2
# Processed by: cddbd v1.5.1PL0 Copyright (c) Steve Scherf et al.
# Submitted via: EasyCDDAExtractor 5.0.6
# Normalized: r1:DSETVAR1
#
DISCID=fa0fc411
DTITLE=Various Artist - The Ultimate Gold Collection
DYEAR=1900
DGENRE=Love Songs
TTITLE0=Little River Band - Reminiscing
TTITLE1=David Soul - Don't Give Up On Us
TTITLE2=Adrian Gurvitz - Classic
TTITLE3=Dan Seals - One Friend
TTITLE4=The Deele - Two Occasions
TTITLE5=Minnie Riperton - Loving You
TTITLE6=Dr. Hook - Sharing The Night Together
TTITLE7=John Travolta - Never Gonna Fall In Love Again
TTITLE8=Michael Martin Murphy - What's Forever For
TTITLE9=John Waite - Missing You
TTITLE10=Spandau Ballet - True
TTITLE11=Little River Band - Cool Change
TTITLE12=Breathe - How Can I Fall
TTITLE13=Gerry Rafferty - Baker Street
TTITLE14=Danny Wilson - Mary's Prayer
TTITLE15=Glass Tiger - Don't Forget Me
TTITLE16=F.R. David - Words
EXTD=
EXTT0=
EXTT1=
EXTT2=
EXTT3=
EXTT4=
EXTT5=
EXTT6=
EXTT7=
EXTT8=
EXTT9=
EXTT10=
EXTT11=
EXTT12=
EXTT13=
EXTT14=
EXTT15=
EXTT16=
PLAYORDER=
